<svg xmlns="http://www.w3.org/2000/svg" viewBox="0 0 507.16 245.48"><defs><style>.cls-1{fill:none;stroke:#3c3c3b;stroke-miterlimit:10;stroke-width:14px;}.cls-2{fill:#bd98c7;}.cls-3{fill:#757474;}.cls-4{opacity:0.39;fill:#b9b1d8;}.cls-13,.cls-4,.cls-6{font-size:18px;font-family:Consolas-Bold, Consolas;font-weight:700;}.cls-5{fill:#e6284e;}.cls-10,.cls-17,.cls-6{fill:#36a9e1;}.cls-7{fill:#be1622;}.cls-8{fill:#1d1d1b;}.cls-9{letter-spacing:1.45em;}.cls-11{fill:#dedc00;}.cls-12{fill:#2fac66;}.cls-13{fill:#009640;}.cls-14{fill:#fef4f9;}.cls-15{fill:#f4f8fd;}.cls-16{fill:#878787;}.cls-17{opacity:0.34;}.cls-18{fill:#efeeee;}</style></defs><g id="Capa_2" data-name="Capa 2"><g id="Capa_1-2" data-name="Capa 1"><rect class="cls-1" x="7" y="7" width="493.16" height="231.48" rx="2"/><rect class="cls-2" x="13.97" y="13.9" width="367.74" height="20"/><rect class="cls-3" x="13.97" y="33.9" width="367.74" height="197.42"/><text class="cls-4" transform="translate(24.48 55.55)">1<tspan x="0" y="21.6">2</tspan><tspan x="0" y="43.2">3</tspan><tspan x="0" y="64.8">4</tspan><tspan x="0" y="86.4">5</tspan><tspan x="0" y="108">6</tspan></text><circle class="cls-5" cx="29.21" cy="23.34" r="4.73"/><text class="cls-6" transform="translate(52.02 55.55)">&lt;<tspan class="cls-7" x="9.9" y="0">html</tspan><tspan x="49.48" y="0">&gt;</tspan><tspan class="cls-8"><tspan class="cls-9" x="0" y="21.6">	</tspan><tspan class="cls-10" x="36" y="21.6">&lt;</tspan><tspan class="cls-7" x="45.9" y="21.6">head</tspan><tspan class="cls-10" x="85.48" y="21.6">&gt;</tspan><tspan class="cls-9" x="0" y="43.2">	</tspan><tspan class="cls-10" x="36" y="43.2">&lt;/</tspan><tspan class="cls-7" x="55.79" y="43.2">head</tspan><tspan class="cls-10" x="95.38" y="43.2">&gt;</tspan><tspan class="cls-9" x="0" y="64.8">	</tspan><tspan class="cls-10" x="36" y="64.8">&lt;</tspan><tspan class="cls-7" x="45.9" y="64.8">body</tspan><tspan class="cls-10" x="85.48" y="64.8">&gt;</tspan><tspan class="cls-9" x="0" y="86.4">	</tspan><tspan class="cls-10" x="36" y="86.4">&lt;/</tspan><tspan class="cls-7" x="55.79" y="86.4">body</tspan><tspan class="cls-10" x="95.38" y="86.4">&gt;</tspan></tspan><tspan x="0" y="108">&lt;/</tspan><tspan class="cls-7" x="19.79" y="108">html</tspan><tspan x="59.38" y="108">&gt;</tspan></text><rect class="cls-8" x="13.97" y="157.97" width="367.74" height="73.35"/><circle class="cls-11" cx="47.3" cy="23.34" r="4.73"/><circle class="cls-12" cx="65.06" cy="23.34" r="4.73"/><text class="cls-13" transform="translate(22.77 175.14)">&gt;_</text><rect class="cls-14" x="381.71" y="13.9" width="110.71" height="20"/><rect class="cls-15" x="381.71" y="33.9" width="110.71" height="197.42"/><rect class="cls-16" x="486.61" y="126.1" width="3.87" height="98.08" rx="1.94"/><rect class="cls-17" x="392.55" y="43.99" width="85.94" height="56.65" rx="2"/><rect class="cls-18" x="415.13" y="33.61" width="3.87" height="40" rx="1.94" transform="translate(363.45 470.68) rotate(-90)"/><rect class="cls-18" x="420.13" y="64" width="3.87" height="50" rx="1.94" transform="translate(333.06 511.07) rotate(-90)"/><rect class="cls-18" x="415.13" y="62.01" width="3.87" height="40" rx="1.94" transform="translate(335.05 499.08) rotate(-90)"/><rect class="cls-18" x="430.13" y="40.41" width="3.87" height="70" rx="1.94" transform="translate(356.65 507.48) rotate(-90)"/><rect class="cls-18" x="420.13" y="43.16" width="3.87" height="50" rx="1.94" transform="translate(353.9 490.23) rotate(-90)"/><rect class="cls-18" x="425.13" y="30.81" width="3.87" height="60" rx="1.94" transform="translate(366.26 487.87) rotate(-90)"/></g></g></svg>